<?xml version="1.0" standalone="no"?>
<!DOCTYPE svg PUBLIC "-//W3C//DTD SVG 20010904//EN"
 "http://www.w3.org/TR/2001/REC-SVG-20010904/DTD/svg10.dtd">
<svg version="1.0" xmlns="http://www.w3.org/2000/svg"
 width="260.000000pt" height="260.000000pt" viewBox="0 0 260.000000 260.000000"
 preserveAspectRatio="xMidYMid meet">
<metadata>
Created by potrace 1.11, written by Peter Selinger 2001-2013
</metadata>
<g transform="translate(0.000000,260.000000) scale(0.100000,-0.100000)"
fill="#000000" stroke="none">
<path d="M347 1740 c-8 -12 -34 -42 -59 -68 -121 -128 -223 -287 -268 -416
-26 -78 -27 -204 -1 -261 34 -75 115 -137 198 -152 61 -10 167 -6 248 11 62
12 275 93 440 166 22 9 85 37 140 60 55 23 118 50 140 60 22 10 132 57 245
105 207 88 243 103 303 129 17 8 187 80 377 161 445 189 464 197 470 203 6 5
6 6 -180 -44 -74 -19 -142 -37 -150 -39 -42 -10 -276 -72 -530 -140 -157 -42
-292 -78 -300 -80 -8 -1 -40 -10 -71 -19 -31 -9 -65 -18 -75 -20 -11 -2 -140
-36 -287 -75 -338 -90 -376 -98 -462 -95 -239 8 -317 212 -184 476 30 59 32
75 6 38z"/>
</g>
</svg>
